# xmcd CD database file
#
# Track frame offsets:
#	150
#	17682
#	33560
#
# Disc length: 731 seconds
#
# Revision: 1
# Processed by: cddbd v1.5PL3 Copyright (c) Steve Scherf et al.
# Submitted via: CDex 1.51
#
DISCID=1b02d903
DTITLE=かせきさいだぁ - 午後のパノラマ
DYEAR=1997
DGENRE=Rock
TTITLE0=午後のパノラマ
TTITLE1=トロピカルサイダー2000マイル
TTITLE2=苦悩の人(radio version)
EXTD=YEAR: 1997
EXTT0=
EXTT1=
EXTT2=
PLAYORDER=
